<svg width="742" height="600" viewBox="0 0 742 600" fill="none" xmlns="http://www.w3.org/2000/svg">
<path fill-rule="evenodd" clip-rule="evenodd" d="M167.432 312C101.382 312 47.8376 365.726 47.8376 432C47.8376 498.274 101.382 552 167.432 552C233.482 552 287.026 498.274 287.026 432C287.026 412.388 282.353 393.913 274.063 377.595C263.413 381.731 251.835 384 239.73 384H191.351C178.141 384 167.432 373.255 167.432 360C167.432 346.745 178.141 336 191.351 336H239.73C257.35 336 272.718 326.335 280.855 312H167.432ZM313.164 349.235C326.721 332.74 334.863 311.599 334.863 288.547C334.863 275.226 324.143 264 310.403 264H167.432C74.9617 264 0 339.216 0 432C0 524.784 74.9617 600 167.432 600C259.902 600 334.863 524.784 334.863 432C334.863 401.94 326.976 373.676 313.164 349.235Z" fill="#FF7474"/>
<path d="M191.351 432C191.351 445.255 180.642 456 167.432 456C154.222 456 143.513 445.255 143.513 432C143.513 418.745 154.222 408 167.432 408C180.642 408 191.351 418.745 191.351 432Z" fill="#FF7474"/>
<path d="M263.107 432C263.107 445.255 252.398 456 239.188 456C225.978 456 215.269 445.255 215.269 432C215.269 418.745 225.978 408 239.188 408C252.398 408 263.107 418.745 263.107 432Z" fill="#FF7474"/>
<path d="M526.214 432C526.214 445.255 515.505 456 502.295 456C489.085 456 478.376 445.255 478.376 432C478.376 418.745 489.085 408 502.295 408C515.505 408 526.214 418.745 526.214 432Z" fill="#FF7474"/>
<path d="M597.97 432C597.97 445.255 587.261 456 574.051 456C560.841 456 550.133 445.255 550.133 432C550.133 418.745 560.841 408 574.051 408C587.261 408 597.97 418.745 597.97 432Z" fill="#FF7474"/>
<path fill-rule="evenodd" clip-rule="evenodd" d="M502.295 48C462.665 48 430.539 80.2355 430.539 120C430.539 132.697 433.794 144.56 439.494 154.867C441.908 159.233 442.906 164.246 442.347 169.208C440.97 181.431 439.383 192.649 436.72 202.973C439.869 200.137 443.366 196.623 447.366 192.236C454.206 184.737 465.012 182.374 474.34 186.339C482.9 189.976 492.331 192 502.295 192C541.925 192 574.051 159.764 574.051 120C574.051 80.2355 541.925 48 502.295 48ZM382.701 120C382.701 53.7258 436.245 0 502.295 0C568.345 0 621.889 53.7258 621.889 120C621.889 186.274 568.345 240 502.295 240C491.702 240 481.407 238.612 471.592 236.003C461.344 245.713 450.644 253.356 437.814 258.241C420.581 264.803 402.24 265.328 381.146 263.949C371.09 263.292 362.522 256.38 359.723 246.666C356.924 236.952 360.494 226.519 368.649 220.578C379.597 212.604 384.128 206.966 387.027 200.753C389.963 194.461 392.022 185.927 393.962 170.887C386.734 155.417 382.701 138.154 382.701 120Z" fill="#FF7474"/>
<path fill-rule="evenodd" clip-rule="evenodd" d="M414.187 381.92C409.271 397.735 406.62 414.556 406.62 432C406.62 524.784 481.582 600 574.051 600C666.521 600 741.483 524.784 741.483 432C741.483 339.216 666.521 264 574.051 264C543.595 264 514.97 272.182 490.318 286.49C481.097 291.843 472.429 298.055 464.424 305.02C435.016 326.354 418.409 337.079 383.428 336.011C370.225 335.608 359.195 346.021 358.793 359.27C358.391 372.519 368.77 383.586 381.973 383.989C393.768 384.349 404.411 383.586 414.187 381.92ZM493.28 343.499C495.251 342.054 497.228 340.595 499.217 339.128C504.414 335.295 509.692 331.402 515.156 327.531C532.521 317.649 552.594 312 574.051 312C640.101 312 693.646 365.726 693.646 432C693.646 498.274 640.101 552 574.051 552C508.001 552 454.457 498.274 454.457 432C454.457 396.987 469.395 365.456 493.28 343.499Z" fill="#FF7474"/>
</svg>
